<svg width="152" height="170" viewBox="0 0 152 170" fill="none" xmlns="http://www.w3.org/2000/svg">
<path d="M70.4 74.8H54.72V63.52L47.92 70.32H5.12V30.48H31.2V18.4H5.12V4.96H46.88V43.92H20.8V56.72H54.72V4.16H70.4V74.8ZM146.576 43.2H130.896V4.16H146.576V43.2ZM123.056 41.04H80.0956V4.56H95.7756V10.48H107.376V4.56H123.056V41.04ZM107.376 28.16V23.2H95.7756V28.16H107.376ZM131.776 76H98.8156C87.6956 76 82.9756 68.8 82.9756 60.48C82.9756 52.16 87.9356 44.96 99.0556 44.96H132.016C143.136 44.96 148.096 52.16 148.096 60.48C148.096 68.8 142.896 76 131.776 76ZM128.416 57.52H102.656C100.096 57.52 98.6556 58.72 98.6556 60.48C98.6556 62.16 100.176 63.36 102.656 63.36H128.416C130.896 63.36 132.416 62.16 132.416 60.48C132.416 58.72 130.976 57.52 128.416 57.52ZM73.28 132.52H2.72V121.32H29.04V117H21.68C11.44 117 4.8 110.76 4.8 102.52C4.8 94.28 11.44 88.04 21.68 88.04H54.32C64.56 88.04 71.2 94.28 71.2 102.52C71.2 110.76 64.56 117 54.32 117H46.96V121.32H73.28V132.52ZM69.68 160.2H54V147.16H6.48V135.96H69.68V160.2ZM51.52 99.64H24.48C22.24 99.64 20.48 100.68 20.48 102.52C20.48 104.36 22.24 105.4 24.48 105.4H51.52C53.76 105.4 55.52 104.36 55.52 102.52C55.52 100.68 53.76 99.64 51.52 99.64ZM146.576 139.8H130.896V121.8H124.656L117.056 129.88C111.376 125.88 106.256 121.24 101.696 116.76C97.1356 121.32 91.8556 126.2 85.8556 130.6L75.9356 120.36C82.0156 115.64 87.4556 110.6 91.5356 105.72C92.8956 104.12 93.2956 102.76 93.2956 100.52V89.16H110.096V100.52C110.096 102.52 110.496 104.52 111.776 106.12C114.496 109.4 117.616 112.44 121.056 115.4V109.56H130.896V105.64H120.256V93.4H130.896V89.16H146.576V139.8ZM146.976 159.8H86.0956V133.48H101.776V146.68H146.976V159.8Z" fill="#372ECF"/>
</svg>
